<svg width="328" height="56" viewBox="0 0 328 56" fill="none" xmlns="http://www.w3.org/2000/svg">
<rect width="328" height="56" rx="4" fill="#F1F1F1"/>
<path d="M18.2614 34H16.3977L20.5852 22.3636H22.6136L26.8011 34H24.9375L21.6477 24.4773H21.5568L18.2614 34ZM18.5739 29.4432H24.6193V30.9205H18.5739V29.4432ZM28.3452 37.2727V25.2727H30.0043V26.6875H30.1463C30.2448 26.5057 30.3868 26.2955 30.5724 26.0568C30.758 25.8182 31.0156 25.6098 31.3452 25.4318C31.6747 25.25 32.1103 25.1591 32.652 25.1591C33.3565 25.1591 33.9853 25.3371 34.5384 25.6932C35.0914 26.0492 35.5251 26.5625 35.8395 27.233C36.1577 27.9034 36.3168 28.7102 36.3168 29.6534C36.3168 30.5966 36.1596 31.4053 35.8452 32.0795C35.5308 32.75 35.099 33.267 34.5497 33.6307C34.0005 33.9905 33.3736 34.1705 32.669 34.1705C32.1387 34.1705 31.705 34.0814 31.3679 33.9034C31.0346 33.7254 30.7732 33.517 30.5838 33.2784C30.3944 33.0398 30.2486 32.8277 30.1463 32.642H30.044V37.2727H28.3452ZM30.0099 29.6364C30.0099 30.25 30.099 30.7879 30.277 31.25C30.455 31.7121 30.7126 32.0739 31.0497 32.3352C31.3868 32.5928 31.7997 32.7216 32.2884 32.7216C32.7959 32.7216 33.2202 32.5871 33.5611 32.3182C33.902 32.0455 34.1596 31.6761 34.3338 31.2102C34.5118 30.7443 34.6009 30.2197 34.6009 29.6364C34.6009 29.0606 34.5137 28.5436 34.3395 28.0852C34.169 27.6269 33.9115 27.2652 33.5668 27C33.2259 26.7348 32.7997 26.6023 32.2884 26.6023C31.7959 26.6023 31.3793 26.7292 31.0384 26.983C30.7012 27.2367 30.4455 27.5909 30.2713 28.0455C30.0971 28.5 30.0099 29.0303 30.0099 29.6364ZM38.2202 37.2727V25.2727H39.8793V26.6875H40.0213C40.1198 26.5057 40.2618 26.2955 40.4474 26.0568C40.633 25.8182 40.8906 25.6098 41.2202 25.4318C41.5497 25.25 41.9853 25.1591 42.527 25.1591C43.2315 25.1591 43.8603 25.3371 44.4134 25.6932C44.9664 26.0492 45.4001 26.5625 45.7145 27.233C46.0327 27.9034 46.1918 28.7102 46.1918 29.6534C46.1918 30.5966 46.0346 31.4053 45.7202 32.0795C45.4058 32.75 44.974 33.267 44.4247 33.6307C43.8755 33.9905 43.2486 34.1705 42.544 34.1705C42.0137 34.1705 41.58 34.0814 41.2429 33.9034C40.9096 33.7254 40.6482 33.517 40.4588 33.2784C40.2694 33.0398 40.1236 32.8277 40.0213 32.642H39.919V37.2727H38.2202ZM39.8849 29.6364C39.8849 30.25 39.974 30.7879 40.152 31.25C40.33 31.7121 40.5876 32.0739 40.9247 32.3352C41.2618 32.5928 41.6747 32.7216 42.1634 32.7216C42.6709 32.7216 43.0952 32.5871 43.4361 32.3182C43.777 32.0455 44.0346 31.6761 44.2088 31.2102C44.3868 30.7443 44.4759 30.2197 44.4759 29.6364C44.4759 29.0606 44.3887 28.5436 44.2145 28.0852C44.044 27.6269 43.7865 27.2652 43.4418 27C43.1009 26.7348 42.6747 26.6023 42.1634 26.6023C41.6709 26.6023 41.2543 26.7292 40.9134 26.983C40.5762 27.2367 40.3205 27.5909 40.1463 28.0455C39.9721 28.5 39.8849 29.0303 39.8849 29.6364ZM49.794 22.3636V34H48.0952V22.3636H49.794ZM53.1534 37.2727C52.8996 37.2727 52.6686 37.2519 52.4602 37.2102C52.2519 37.1723 52.0966 37.1307 51.9943 37.0852L52.4034 35.6932C52.714 35.7765 52.9905 35.8125 53.233 35.8011C53.4754 35.7898 53.6894 35.6989 53.875 35.5284C54.0644 35.358 54.2311 35.0795 54.375 34.6932L54.5852 34.1136L51.392 25.2727H53.2102L55.4205 32.0455H55.5114L57.7216 25.2727H59.5455L55.9489 35.1648C55.7822 35.6193 55.5701 36.0038 55.3125 36.3182C55.0549 36.6364 54.7481 36.875 54.392 37.0341C54.036 37.1932 53.6231 37.2727 53.1534 37.2727ZM75.1776 26.1477H73.4048C73.3366 25.7689 73.2098 25.4356 73.0241 25.1477C72.8385 24.8598 72.6113 24.6155 72.3423 24.4148C72.0734 24.214 71.7723 24.0625 71.4389 23.9602C71.1094 23.858 70.759 23.8068 70.3878 23.8068C69.7173 23.8068 69.117 23.9754 68.5866 24.3125C68.0601 24.6496 67.6435 25.1439 67.3366 25.7955C67.0336 26.447 66.8821 27.2424 66.8821 28.1818C66.8821 29.1288 67.0336 29.928 67.3366 30.5795C67.6435 31.2311 68.062 31.7235 68.5923 32.0568C69.1226 32.3902 69.7192 32.5568 70.3821 32.5568C70.7495 32.5568 71.098 32.5076 71.4276 32.4091C71.7609 32.3068 72.062 32.1572 72.331 31.9602C72.5999 31.7633 72.8272 31.5227 73.0128 31.2386C73.2022 30.9508 73.3329 30.6212 73.4048 30.25L75.1776 30.2557C75.0829 30.8277 74.8991 31.3542 74.6264 31.8352C74.3575 32.3125 74.0109 32.7254 73.5866 33.0739C73.1662 33.4186 72.6851 33.6856 72.1435 33.875C71.6018 34.0644 71.0109 34.1591 70.3707 34.1591C69.3632 34.1591 68.4654 33.9205 67.6776 33.4432C66.8897 32.9621 66.2685 32.2746 65.8139 31.3807C65.3632 30.4867 65.1378 29.4205 65.1378 28.1818C65.1378 26.9394 65.3651 25.8731 65.8196 24.983C66.2741 24.089 66.8954 23.4034 67.6832 22.9261C68.4711 22.4451 69.367 22.2045 70.3707 22.2045C70.9882 22.2045 71.5639 22.2936 72.098 22.4716C72.6359 22.6458 73.1188 22.9034 73.5469 23.2443C73.9749 23.5814 74.3291 23.9943 74.6094 24.483C74.8897 24.9678 75.0791 25.5227 75.1776 26.1477ZM80.8182 34.1761C80 34.1761 79.286 33.9886 78.6761 33.6136C78.0663 33.2386 77.5928 32.714 77.2557 32.0398C76.9186 31.3655 76.75 30.5777 76.75 29.6761C76.75 28.7708 76.9186 27.9792 77.2557 27.3011C77.5928 26.6231 78.0663 26.0966 78.6761 25.7216C79.286 25.3466 80 25.1591 80.8182 25.1591C81.6364 25.1591 82.3504 25.3466 82.9602 25.7216C83.5701 26.0966 84.0436 26.6231 84.3807 27.3011C84.7178 27.9792 84.8864 28.7708 84.8864 29.6761C84.8864 30.5777 84.7178 31.3655 84.3807 32.0398C84.0436 32.714 83.5701 33.2386 82.9602 33.6136C82.3504 33.9886 81.6364 34.1761 80.8182 34.1761ZM80.8239 32.75C81.3542 32.75 81.7936 32.6098 82.142 32.3295C82.4905 32.0492 82.7481 31.6761 82.9148 31.2102C83.0852 30.7443 83.1705 30.2311 83.1705 29.6705C83.1705 29.1136 83.0852 28.6023 82.9148 28.1364C82.7481 27.6667 82.4905 27.2898 82.142 27.0057C81.7936 26.7216 81.3542 26.5795 80.8239 26.5795C80.2898 26.5795 79.8466 26.7216 79.4943 27.0057C79.1458 27.2898 78.8864 27.6667 78.7159 28.1364C78.5492 28.6023 78.4659 29.1136 78.4659 29.6705C78.4659 30.2311 78.5492 30.7443 78.7159 31.2102C78.8864 31.6761 79.1458 32.0492 79.4943 32.3295C79.8466 32.6098 80.2898 32.75 80.8239 32.75ZM92.3111 30.3807V25.2727H94.0156V34H92.3452V32.4886H92.2543C92.0535 32.9545 91.7315 33.3428 91.2884 33.6534C90.849 33.9602 90.3016 34.1136 89.6463 34.1136C89.0857 34.1136 88.5895 33.9905 88.1577 33.7443C87.7296 33.4943 87.3925 33.125 87.1463 32.6364C86.9039 32.1477 86.7827 31.5436 86.7827 30.8239V25.2727H88.4815V30.6193C88.4815 31.214 88.6463 31.6875 88.9759 32.0398C89.3054 32.392 89.7334 32.5682 90.2599 32.5682C90.5781 32.5682 90.8944 32.4886 91.2088 32.3295C91.527 32.1705 91.7902 31.9299 91.9986 31.608C92.2107 31.286 92.3149 30.8769 92.3111 30.3807ZM96.2983 37.2727V25.2727H97.9574V26.6875H98.0994C98.1979 26.5057 98.34 26.2955 98.5256 26.0568C98.7112 25.8182 98.9688 25.6098 99.2983 25.4318C99.6278 25.25 100.063 25.1591 100.605 25.1591C101.31 25.1591 101.938 25.3371 102.491 25.6932C103.045 26.0492 103.478 26.5625 103.793 27.233C104.111 27.9034 104.27 28.7102 104.27 29.6534C104.27 30.5966 104.113 31.4053 103.798 32.0795C103.484 32.75 103.052 33.267 102.503 33.6307C101.954 33.9905 101.327 34.1705 100.622 34.1705C100.092 34.1705 99.6581 34.0814 99.321 33.9034C98.9877 33.7254 98.7263 33.517 98.5369 33.2784C98.3475 33.0398 98.2017 32.8277 98.0994 32.642H97.9972V37.2727H96.2983ZM97.9631 29.6364C97.9631 30.25 98.0521 30.7879 98.2301 31.25C98.4081 31.7121 98.6657 32.0739 99.0028 32.3352C99.34 32.5928 99.7528 32.7216 100.241 32.7216C100.749 32.7216 101.173 32.5871 101.514 32.3182C101.855 32.0455 102.113 31.6761 102.287 31.2102C102.465 30.7443 102.554 30.2197 102.554 29.6364C102.554 29.0606 102.467 28.5436 102.293 28.0852C102.122 27.6269 101.865 27.2652 101.52 27C101.179 26.7348 100.753 26.6023 100.241 26.6023C99.7491 26.6023 99.3324 26.7292 98.9915 26.983C98.6544 27.2367 98.3987 27.5909 98.2244 28.0455C98.0502 28.5 97.9631 29.0303 97.9631 29.6364ZM109.849 34.1761C109.031 34.1761 108.317 33.9886 107.707 33.6136C107.098 33.2386 106.624 32.714 106.287 32.0398C105.95 31.3655 105.781 30.5777 105.781 29.6761C105.781 28.7708 105.95 27.9792 106.287 27.3011C106.624 26.6231 107.098 26.0966 107.707 25.7216C108.317 25.3466 109.031 25.1591 109.849 25.1591C110.668 25.1591 111.382 25.3466 111.991 25.7216C112.601 26.0966 113.075 26.6231 113.412 27.3011C113.749 27.9792 113.918 28.7708 113.918 29.6761C113.918 30.5777 113.749 31.3655 113.412 32.0398C113.075 32.714 112.601 33.2386 111.991 33.6136C111.382 33.9886 110.668 34.1761 109.849 34.1761ZM109.855 32.75C110.385 32.75 110.825 32.6098 111.173 32.3295C111.522 32.0492 111.779 31.6761 111.946 31.2102C112.116 30.7443 112.202 30.2311 112.202 29.6705C112.202 29.1136 112.116 28.6023 111.946 28.1364C111.779 27.6667 111.522 27.2898 111.173 27.0057C110.825 26.7216 110.385 26.5795 109.855 26.5795C109.321 26.5795 108.878 26.7216 108.526 27.0057C108.177 27.2898 107.918 27.6667 107.747 28.1364C107.58 28.6023 107.497 29.1136 107.497 29.6705C107.497 30.2311 107.58 30.7443 107.747 31.2102C107.918 31.6761 108.177 32.0492 108.526 32.3295C108.878 32.6098 109.321 32.75 109.855 32.75ZM117.513 28.8182V34H115.814V25.2727H117.445V26.6932H117.553C117.753 26.2311 118.068 25.8598 118.496 25.5795C118.928 25.2992 119.471 25.1591 120.126 25.1591C120.721 25.1591 121.242 25.2841 121.689 25.5341C122.136 25.7803 122.482 26.1477 122.729 26.6364C122.975 27.125 123.098 27.7292 123.098 28.4489V34H121.399V28.6534C121.399 28.0208 121.234 27.5265 120.905 27.1705C120.575 26.8106 120.123 26.6307 119.547 26.6307C119.153 26.6307 118.803 26.7159 118.496 26.8864C118.193 27.0568 117.952 27.3068 117.774 27.6364C117.6 27.9621 117.513 28.3561 117.513 28.8182ZM139.412 26.1477H137.639C137.571 25.7689 137.444 25.4356 137.259 25.1477C137.073 24.8598 136.846 24.6155 136.577 24.4148C136.308 24.214 136.007 24.0625 135.673 23.9602C135.344 23.858 134.993 23.8068 134.622 23.8068C133.952 23.8068 133.351 23.9754 132.821 24.3125C132.295 24.6496 131.878 25.1439 131.571 25.7955C131.268 26.447 131.116 27.2424 131.116 28.1818C131.116 29.1288 131.268 29.928 131.571 30.5795C131.878 31.2311 132.296 31.7235 132.827 32.0568C133.357 32.3902 133.954 32.5568 134.616 32.5568C134.984 32.5568 135.332 32.5076 135.662 32.4091C135.995 32.3068 136.296 32.1572 136.565 31.9602C136.834 31.7633 137.062 31.5227 137.247 31.2386C137.437 30.9508 137.567 30.6212 137.639 30.25L139.412 30.2557C139.317 30.8277 139.134 31.3542 138.861 31.8352C138.592 32.3125 138.245 32.7254 137.821 33.0739C137.401 33.4186 136.92 33.6856 136.378 33.875C135.836 34.0644 135.245 34.1591 134.605 34.1591C133.598 34.1591 132.7 33.9205 131.912 33.4432C131.124 32.9621 130.503 32.2746 130.048 31.3807C129.598 30.4867 129.372 29.4205 129.372 28.1818C129.372 26.9394 129.599 25.8731 130.054 24.983C130.509 24.089 131.13 23.4034 131.918 22.9261C132.705 22.4451 133.601 22.2045 134.605 22.2045C135.223 22.2045 135.798 22.2936 136.332 22.4716C136.87 22.6458 137.353 22.9034 137.781 23.2443C138.209 23.5814 138.563 23.9943 138.844 24.483C139.124 24.9678 139.313 25.5227 139.412 26.1477ZM145.053 34.1761C144.234 34.1761 143.52 33.9886 142.911 33.6136C142.301 33.2386 141.827 32.714 141.49 32.0398C141.153 31.3655 140.984 30.5777 140.984 29.6761C140.984 28.7708 141.153 27.9792 141.49 27.3011C141.827 26.6231 142.301 26.0966 142.911 25.7216C143.52 25.3466 144.234 25.1591 145.053 25.1591C145.871 25.1591 146.585 25.3466 147.195 25.7216C147.804 26.0966 148.278 26.6231 148.615 27.3011C148.952 27.9792 149.121 28.7708 149.121 29.6761C149.121 30.5777 148.952 31.3655 148.615 32.0398C148.278 32.714 147.804 33.2386 147.195 33.6136C146.585 33.9886 145.871 34.1761 145.053 34.1761ZM145.058 32.75C145.589 32.75 146.028 32.6098 146.376 32.3295C146.725 32.0492 146.982 31.6761 147.149 31.2102C147.32 30.7443 147.405 30.2311 147.405 29.6705C147.405 29.1136 147.32 28.6023 147.149 28.1364C146.982 27.6667 146.725 27.2898 146.376 27.0057C146.028 26.7216 145.589 26.5795 145.058 26.5795C144.524 26.5795 144.081 26.7216 143.729 27.0057C143.38 27.2898 143.121 27.6667 142.95 28.1364C142.784 28.6023 142.7 29.1136 142.7 29.6705C142.7 30.2311 142.784 30.7443 142.95 31.2102C143.121 31.6761 143.38 32.0492 143.729 32.3295C144.081 32.6098 144.524 32.75 145.058 32.75ZM154.284 34.1705C153.58 34.1705 152.951 33.9905 152.398 33.6307C151.848 33.267 151.417 32.75 151.102 32.0795C150.792 31.4053 150.636 30.5966 150.636 29.6534C150.636 28.7102 150.794 27.9034 151.108 27.233C151.426 26.5625 151.862 26.0492 152.415 25.6932C152.968 25.3371 153.595 25.1591 154.295 25.1591C154.837 25.1591 155.273 25.25 155.602 25.4318C155.936 25.6098 156.193 25.8182 156.375 26.0568C156.561 26.2955 156.705 26.5057 156.807 26.6875H156.909V22.3636H158.608V34H156.949V32.642H156.807C156.705 32.8277 156.557 33.0398 156.364 33.2784C156.174 33.517 155.913 33.7254 155.58 33.9034C155.246 34.0814 154.814 34.1705 154.284 34.1705ZM154.659 32.7216C155.148 32.7216 155.561 32.5928 155.898 32.3352C156.239 32.0739 156.496 31.7121 156.67 31.25C156.848 30.7879 156.938 30.25 156.938 29.6364C156.938 29.0303 156.85 28.5 156.676 28.0455C156.502 27.5909 156.246 27.2367 155.909 26.983C155.572 26.7292 155.155 26.6023 154.659 26.6023C154.148 26.6023 153.722 26.7348 153.381 27C153.04 27.2652 152.782 27.6269 152.608 28.0852C152.438 28.5436 152.352 29.0606 152.352 29.6364C152.352 30.2197 152.439 30.7443 152.614 31.2102C152.788 31.6761 153.045 32.0455 153.386 32.3182C153.731 32.5871 154.155 32.7216 154.659 32.7216ZM164.794 34.1761C163.934 34.1761 163.194 33.9924 162.572 33.625C161.955 33.2538 161.478 32.733 161.141 32.0625C160.807 31.3883 160.641 30.5985 160.641 29.6932C160.641 28.7992 160.807 28.0114 161.141 27.3295C161.478 26.6477 161.947 26.1155 162.55 25.733C163.156 25.3504 163.864 25.1591 164.675 25.1591C165.167 25.1591 165.644 25.2405 166.107 25.4034C166.569 25.5663 166.983 25.822 167.351 26.1705C167.718 26.5189 168.008 26.9716 168.22 27.5284C168.432 28.0814 168.538 28.7538 168.538 29.5455V30.1477H161.601V28.875H166.874C166.874 28.428 166.783 28.0322 166.601 27.6875C166.419 27.339 166.163 27.0644 165.834 26.8636C165.508 26.6629 165.125 26.5625 164.686 26.5625C164.209 26.5625 163.792 26.6799 163.436 26.9148C163.084 27.1458 162.811 27.4489 162.618 27.8239C162.429 28.1951 162.334 28.5985 162.334 29.0341V30.0284C162.334 30.6117 162.436 31.108 162.641 31.517C162.849 31.9261 163.139 32.2386 163.51 32.4545C163.881 32.6667 164.315 32.7727 164.811 32.7727C165.133 32.7727 165.427 32.7273 165.692 32.6364C165.957 32.5417 166.186 32.4015 166.379 32.2159C166.572 32.0303 166.72 31.8011 166.822 31.5284L168.43 31.8182C168.302 32.2917 168.071 32.7064 167.737 33.0625C167.408 33.4148 166.993 33.6894 166.493 33.8864C165.997 34.0795 165.43 34.1761 164.794 34.1761Z" fill="#626262"/>
<path d="M275.719 26.2536H273.86C273.807 25.9486 273.709 25.6785 273.567 25.4432C273.424 25.2045 273.247 25.0024 273.035 24.8366C272.823 24.6709 272.581 24.5466 272.309 24.4638C272.04 24.3776 271.75 24.3345 271.439 24.3345C270.885 24.3345 270.395 24.4737 269.967 24.7521C269.54 25.0272 269.205 25.4316 268.963 25.9652C268.721 26.4955 268.6 27.1435 268.6 27.9091C268.6 28.688 268.721 29.3442 268.963 29.8778C269.208 30.4081 269.543 30.8092 269.967 31.081C270.395 31.3494 270.884 31.4837 271.434 31.4837C271.739 31.4837 272.024 31.4439 272.289 31.3643C272.558 31.2815 272.798 31.1605 273.01 31.0014C273.225 30.8423 273.406 30.6468 273.552 30.4148C273.701 30.1828 273.804 29.9176 273.86 29.6193L275.719 29.6293C275.65 30.1132 275.499 30.5672 275.267 30.9915C275.038 31.4157 274.738 31.7902 274.367 32.1151C273.996 32.4366 273.562 32.6884 273.065 32.8707C272.567 33.0497 272.016 33.1392 271.409 33.1392C270.514 33.1392 269.715 32.9321 269.013 32.5178C268.31 32.1035 267.757 31.5052 267.352 30.723C266.948 29.9408 266.746 29.0028 266.746 27.9091C266.746 26.812 266.95 25.8741 267.357 25.0952C267.765 24.313 268.32 23.7147 269.023 23.3004C269.725 22.8861 270.521 22.679 271.409 22.679C271.976 22.679 272.503 22.7585 272.99 22.9176C273.477 23.0767 273.911 23.3104 274.293 23.6186C274.674 23.9235 274.987 24.2981 275.232 24.7422C275.481 25.183 275.643 25.6868 275.719 26.2536ZM277.409 33V22.8182H279.253V27.1286H283.971V22.8182H285.82V33H283.971V28.6747H279.253V33H277.409ZM287.827 33V22.8182H294.449V24.3643H289.671V27.1286H294.106V28.6747H289.671V31.4538H294.488V33H287.827ZM305.046 26.2536H303.186C303.133 25.9486 303.035 25.6785 302.893 25.4432C302.75 25.2045 302.573 25.0024 302.361 24.8366C302.149 24.6709 301.907 24.5466 301.635 24.4638C301.367 24.3776 301.077 24.3345 300.765 24.3345C300.212 24.3345 299.721 24.4737 299.294 24.7521C298.866 25.0272 298.531 25.4316 298.289 25.9652C298.047 26.4955 297.926 27.1435 297.926 27.9091C297.926 28.688 298.047 29.3442 298.289 29.8778C298.535 30.4081 298.869 30.8092 299.294 31.081C299.721 31.3494 300.21 31.4837 300.76 31.4837C301.065 31.4837 301.35 31.4439 301.615 31.3643C301.884 31.2815 302.124 31.1605 302.336 31.0014C302.552 30.8423 302.732 30.6468 302.878 30.4148C303.027 30.1828 303.13 29.9176 303.186 29.6193L305.046 29.6293C304.976 30.1132 304.825 30.5672 304.593 30.9915C304.365 31.4157 304.065 31.7902 303.693 32.1151C303.322 32.4366 302.888 32.6884 302.391 32.8707C301.894 33.0497 301.342 33.1392 300.735 33.1392C299.84 33.1392 299.042 32.9321 298.339 32.5178C297.636 32.1035 297.083 31.5052 296.678 30.723C296.274 29.9408 296.072 29.0028 296.072 27.9091C296.072 26.812 296.276 25.8741 296.683 25.0952C297.091 24.313 297.646 23.7147 298.349 23.3004C299.052 22.8861 299.847 22.679 300.735 22.679C301.302 22.679 301.829 22.7585 302.316 22.9176C302.803 23.0767 303.238 23.3104 303.619 23.6186C304 23.9235 304.313 24.2981 304.558 24.7422C304.807 25.183 304.969 25.6868 305.046 26.2536ZM306.735 33V22.8182H308.579V27.4964H308.703L312.676 22.8182H314.928L310.99 27.3871L314.963 33H312.745L309.708 28.6349L308.579 29.9673V33H306.735Z" fill="#1B4B66"/>
</svg>
